# xmcd CD database file
#
# Track frame offsets:
#	187
#	21412
#	47775
#	72587
#	91937
#	112725
#	133350
#	153375
#	170625
#	193787
#
# Disc length: 2858 seconds
#
# Revision: 7
# Processed by: cddbd v1.5PL3 Copyright (c) Steve Scherf et al.
# Submitted via: CDex 1.50Beta7
#
DISCID=8e0b280a
DTITLE=Kiroro - 長い間〜キロロの森〜
DYEAR=1998
DGENRE=Pop
TTITLE0=長い間
TTITLE1=すてきだね
TTITLE2=未来へ
TTITLE3=恋に恋して
TTITLE4=逃さないで
TTITLE5=いつから
TTITLE6=3人の写真
TTITLE7=ラン ラン ラン
TTITLE8=白い靴下
TTITLE9=僕らはヒーロー
EXTD=YEAR: 1998
EXTT0=
EXTT1=
EXTT2=
EXTT3=
EXTT4=
EXTT5=
EXTT6=
EXTT7=
EXTT8=
EXTT9=
PLAYORDER=
